Coordinates
version=1
nRows=32
nColumns=22
inDegrees=yes

Units are S.I. units (second, meters, Newtons, ...)
If the header above contains a line with 'inDegrees', this indicates whether rotational values are in degrees (yes) or radians (no).

endheader
time	pelvis_tilt	pelvis_list	pelvis_rotation	pelvis_tx	pelvis_ty	pelvis_tz	hip_flexion_r	hip_adduction_r	hip_rotation_r	knee_angle_r	ankle_angle_r	subtalar_angle_r	hip_flexion_l	hip_adduction_l	hip_rotation_l	knee_angle_l	ankle_angle_l	subtalar_angle_l	lumbar_extension	lumbar_bending	lumbar_rotation
      1.76000000	      2.70193597	      0.95231235	    128.42439793	     -0.37997305	      0.94398200	      0.70828668	      0.42294455	     14.45126897	      9.47632443	    -15.26219842	     12.70518092	    -10.54729076	     31.30873080	     -7.72256052	      6.33036740	    -43.59903978	      8.04996857	      7.64603982	     -8.26099899	      3.06458795	      9.45253093
      1.77000000	      2.78910623	      0.79728267	    127.75218773	     -0.38473727	      0.94301784	      0.70179514	     -0.08591960	     14.36796037	     10.11936171	    -15.19110475	     13.06578052	    -10.44645289	     31.27393376	     -7.39037182	      7.39478023	    -40.36981698	      8.30459538	      8.27169732	     -8.11520775	      3.04310748	      9.57367630
      1.78000000	      2.87523453	      0.63297023	    127.10301145	     -0.38948191	      0.94194516	      0.69527543	     -0.54139936	     14.28028073	     10.72805609	    -15.19399767	     13.43962335	    -10.35664060	     31.15115939	     -7.07653324	      8.58046480	    -37.06411875	      8.57369891	      8.95229971	     -7.96780845	      3.01346606	      9.66968355
      1.79000000	      2.95971917	      0.46429447	    126.47180369	     -0.39419503	      0.94077394	      0.68870673	     -0.95056666	     14.19469468	     11.31422369	    -15.27001126	     13.81688695	    -10.28936331	     30.94835560	     -6.80414973	      9.86816122	    -33.72600887	      8.85366289	      9.65998454	     -7.82426059	      2.97557882	      9.74820536
      1.80000000	      3.03043241	      0.28649365	    125.85154705	     -0.39885534	      0.93951013	      0.68208661	     -1.30389431	     14.10075524	     11.85702445	    -15.44287694	     14.22928217	    -10.27397720	     30.68157981	     -6.58132642	     11.20976184	    -30.40725879	      9.06882553	     10.27075777	     -7.68853863	      2.91251221	      9.81870274
      1.81000000	      3.11136486	      0.12876449	    125.24479253	     -0.40348155	      0.93817487	      0.67537060	     -1.65086824	     14.03822508	     12.41901928	    -15.64999343	     14.58725354	    -10.27189745	     30.37941606	     -6.45911875	     12.54274480	    -27.19321148	      9.33026021	     10.89839064	     -7.56674361	      2.86633346	      9.87169130
      1.82000000	      3.19778175	     -0.02917844	    124.63895409	     -0.40806046	      0.93675293	      0.66856953	     -1.95791857	     13.99110844	     12.96356171	    -15.92603110	     14.93614627	    -10.30436089	     30.09046586	     -6.42626912	     13.76302042	    -24.16296211	      9.57020339	     11.43365172	     -7.44348031	      2.81901872	      9.92971431
      1.83000000	      3.29049511	     -0.18513975	    124.04061425	     -0.41262226	      0.93526454	      0.66168170	     -2.24102666	     13.95846827	     13.47887623	    -16.24477680	     15.27489955	    -10.37326491	     29.84850357	     -6.46637031	     14.78628980	    -21.39953975	      9.78985843	     11.85047173	     -7.31732121	      2.77405780	      9.99799301
      1.84000000	      3.41919184	     -0.37231428	    123.46441337	     -0.41717532	      0.93364740	      0.65477877	     -2.43233733	     13.95111201	     13.95968467	    -16.63630823	     15.63889911	    -10.44359228	     29.74350900	     -6.54692272	     15.56784793	    -18.99023861	      9.90936023	     12.07466652	     -7.14100212	      2.74762311	     10.03193689
      1.85000000	      3.45451765	     -0.49958441	    122.86398207	     -0.42172831	      0.93220509	      0.64774532	     -2.71135201	     13.89888110	     14.40172118	    -17.08084434	     15.94452760	    -10.55622324	     29.58052204	     -6.62080635	     15.94242697	    -16.93563732	     10.07399176	     12.30625007	     -7.08426732	      2.66238155	     10.10202332
      1.86000000	      3.52125459	     -0.65042085	    122.29256099	     -0.42634666	      0.93070956	      0.64068242	     -2.93730247	     13.85996446	     14.78840915	    -17.54313805	     16.25166710	    -10.65243815	     29.55606004	     -6.67205178	     16.04853546	    -15.31998541	     10.18594642	     12.44925103	     -6.97845245	      2.60110040	     10.15783228
      1.87000000	      3.57607171	     -0.80416465	    121.73181036	     -0.43102682	      0.92927140	      0.63355625	     -3.15615447	     13.80537841	     15.14035244	    -18.02785935	     16.54227012	    -10.71752526	     29.59835095	     -6.67031705	     15.90083970	    -14.13142939	     10.23828194	     12.54794412	     -6.87155759	      2.53225161	     10.21041654
      1.88000000	      3.60183526	     -0.94927006	    121.16185980	     -0.43575524	      0.92795037	      0.62631935	     -3.39348571	     13.72327015	     15.48146152	    -18.53180931	     16.75722757	    -10.76134691	     29.66685130	     -6.60937818	     15.54030627	    -13.36207427	     10.28817983	     12.62257133	     -6.78335843	      2.44161807	     10.28070041
      1.89000000	      3.62108547	     -1.08733780	    120.59940323	     -0.44054720	      0.92674372	      0.61897530	     -3.64212345	     13.63161953	     15.82127192	    -19.03871319	     16.89630705	    -10.77388937	     29.76265316	     -6.49582796	     15.11459086	    -12.98432188	     10.28606189	     12.67645899	     -6.69528262	      2.35097014	     10.35442814
      1.90000000	      3.64512662	     -1.22461003	    120.04313214	     -0.44538346	      0.92565496	      0.61151902	     -3.88059698	     13.53688506	     16.15354511	    -19.56299503	     16.95052163	    -10.75409219	     29.87229249	     -6.34279702	     14.74425849	    -12.94256112	     10.17115101	     12.68824806	     -6.59362390	      2.26534408	     10.44249938
      1.91000000	      3.68025919	     -1.37116759	    119.49358750	     -0.45026842	      0.92467342	      0.60390441	     -4.12282866	     13.44109253	     16.54326408	    -20.06714717	     16.93584931	    -10.67685258	     30.00079074	     -6.15510404	     14.49517235	    -13.20798227	      9.97778400	     12.62625482	     -6.46068987	      2.18294877	     10.53349278
      1.92000000	      3.74465324	     -1.53145519	    118.96627164	     -0.45519736	      0.92379250	      0.59616832	     -4.32462561	     13.35936826	     16.91969652	    -20.59103370	     16.84419537	    -10.45629345	     30.15371701	     -5.94205700	     14.46479765	    -13.72502590	      9.58195719	     12.34177221	     -6.28175972	      2.12039103	     10.60981232
      1.93000000	      3.81008649	     -1.70492960	    118.45184624	     -0.46016912	      0.92307174	      0.58826022	     -4.52263258	     13.26676664	     17.32523628	    -21.10360206	     16.64221991	    -10.23018603	     30.28636256	     -5.69473803	     14.66648415	    -14.41565558	      9.02261728	     12.00187337	     -6.07049917	      2.04755726	     10.69069357
      1.94000000	      3.88455183	     -1.89428450	    117.96996275	     -0.46518788	      0.92250285	      0.58020494	     -4.69472532	     13.17658199	     17.73823959	    -21.62501224	     16.33783553	     -9.93114745	     30.41632632	     -5.41171185	     15.11127488	    -15.24592972	      8.29040499	     11.53538269	     -5.82240887	      1.97160044	     10.72930899
      1.95000000	      3.95232350	     -2.09595406	    117.52935302	     -0.47028785	      0.92212421	      0.57199418	     -4.85290121	     13.07461314	     18.12927012	    -22.14606598	     15.92068479	     -9.55270229	     30.53544207	     -5.08064173	     15.76165203	    -16.18067240	      7.41150222	     10.97671715	     -5.54649901	      1.88098188	     10.72795055
      1.96000000	      3.97625720	     -2.29180789	    117.10876238	     -0.47543115	      0.92200742	      0.56358985	     -5.01956971	     12.93880492	     18.49235833	    -22.69215180	     15.39985687	     -9.01520832	     30.60054001	     -4.70156975	     16.50331094	    -17.17350450	      6.42408270	     10.29165801	     -5.28476278	      1.73961533	     10.71053609
      1.97000000	      4.00683745	     -2.50877122	    116.74159685	     -0.48062665	      0.92205594	      0.55503781	     -5.11936858	     12.81562166	     18.78665305	    -23.29117607	     14.73586900	     -8.43418958	     30.70236843	     -4.29877985	     17.27806293	    -18.24178054	      5.43625217	      9.61757338	     -4.98291991	      1.58916380	     10.61068563
      1.98000000	      4.00016382	     -2.71065603	    116.39244189	     -0.48585655	      0.92238153	      0.54628388	     -5.20272225	     12.67506130	     19.00219717	    -23.95215166	     13.93401942	     -7.67612097	     30.74818326	     -3.88563910	     17.98498649	    -19.31505562	      4.49060627	      8.91008971	     -4.70123698	      1.39926658	     10.49795707
      1.99000000	      3.97512787	     -2.89597413	    116.05741287	     -0.49106863	      0.92295029	      0.53733738	     -5.23333711	     12.54229848	     19.11341417	    -24.71489593	     12.98738987	     -6.73679006	     30.74913242	     -3.49976607	     18.55560631	    -20.37555524	      3.65371779	      8.24775476	     -4.43325470	      1.18625848	     10.36558150
      2.00000000	      3.95081059	     -3.06868545	    115.73370367	     -0.49623151	      0.92372484	      0.52822580	     -5.16888387	     12.43710612	     19.09751781	    -25.61856566	     11.86915661	     -5.61061223	     30.70738614	     -3.17208501	     18.95411140	    -21.38846387	      2.97397949	      7.66592979	     -4.17064767	      0.96996401	     10.19285510
      2.01000000	      3.93204383	     -3.20921825	    115.38377148	     -0.50123994	      0.92471546	      0.51897800	     -4.98802413	     12.37573812	     18.96638798	    -26.71833159	     10.58318689	     -4.20996548	     30.58104890	     -2.95007479	     19.14162760	    -22.30025770	      2.46245976	      7.18191372	     -3.94035756	      0.76200013	     10.02340016
      2.02000000	      3.93852754	     -3.33132634	    114.99836290	     -0.50608691	      0.92585647	      0.50966411	     -4.64639828	     12.36283728	     18.71462722	    -28.03361378	      9.12354915	     -2.51735696	     30.39269731	     -2.84355992	     19.13555113	    -23.10807734	      2.13472558	      6.79384709	     -3.72483840	      0.58703468	      9.86909367
      2.03000000	      3.92619280	     -3.41586625	    114.56207240	     -0.51072618	      0.92717414	      0.50029092	     -4.15940448	     12.35690094	     18.31713998	    -29.58771306	      7.52347439	     -0.49463178	     30.07570729	     -2.83430504	     18.90148619	    -23.76210060	      2.05416853	      6.49245598	     -3.56726673	      0.40481673	      9.70183959
      2.04000000	      3.94821545	     -3.49361089	    114.07371040	     -0.51513389	      0.92853947	      0.49100335	     -3.44431553	     12.38839005	     17.78043015	    -31.40600266	      5.80016425	      1.76521956	     29.70841692	     -2.93055913	     18.53227761	    -24.29809388	      2.13536410	      6.23363949	     -3.42299848	      0.26780569	      9.55679620
      2.05000000	      3.96214206	     -3.55127509	    113.52574037	     -0.51931383	      0.92996329	      0.48183787	     -2.53258699	     12.40721962	     17.10865881	    -33.47588314	      4.02118768	      4.25417678	     29.24418285	     -3.09338727	     18.03101157	    -24.69464089	      2.37261241	      6.00990338	     -3.33081566	      0.14364343	      9.41169093
      2.06000000	      3.96526959	     -3.61022707	    112.92322815	     -0.52327361	      0.93134159	      0.47287630	     -1.39623565	     12.39340121	     16.30869917	    -35.79923693	      2.28991163	      6.78643000	     28.73706749	     -3.28827675	     17.41758779	    -25.01108689	      2.74304738	      5.80546737	     -3.27332673	      0.02472541	      9.26372586
      2.07000000	      3.93711410	     -3.68429716	    112.27585521	     -0.52706640	      0.93262366	      0.46414460	     -0.04166493	     12.30073677	     15.36485530	    -38.34749688	      0.70020829	      9.15460297	     28.19555434	     -3.48060952	     16.68657712	    -25.24766905	      3.22473260	      5.62187415	     -3.24192811	     -0.10769998	      9.08227048
